<mxfile host="app.diagrams.net" modified="2021-07-22T06:55:43.547Z" agent="5.0 (Macintosh; Intel Mac OS X 10_15_7) AppleWebKit/537.36 (KHTML, like Gecko) Chrome/91.0.4472.114 Safari/537.36" etag="d-emabWHIud5QguvJeoA" version="14.9.0" type="github">
  <diagram id="FJT3EdVLjgwq2iVrfuaf" name="Page-1">
    <mxGraphModel dx="1186" dy="764" grid="1" gridSize="10" guides="1" tooltips="1" connect="1" arrows="1" fold="1" page="1" pageScale="1" pageWidth="850" pageHeight="1100" math="0" shadow="0">
      <root>
        <mxCell id="0" />
        <mxCell id="1" parent="0" />
        <mxCell id="MxKaTCPz04sXQIFcnDnJ-49" value="" style="rounded=1;whiteSpace=wrap;html=1;" parent="1" vertex="1">
          <mxGeometry x="60" y="110" width="160" height="310" as="geometry" />
        </mxCell>
        <mxCell id="MxKaTCPz04sXQIFcnDnJ-37" value="" style="rounded=1;whiteSpace=wrap;html=1;" parent="1" vertex="1">
          <mxGeometry x="780" y="110" width="180" height="300" as="geometry" />
        </mxCell>
        <mxCell id="MxKaTCPz04sXQIFcnDnJ-27" style="edgeStyle=orthogonalEdgeStyle;rounded=0;orthogonalLoop=1;jettySize=auto;html=1;entryX=0.5;entryY=0;entryDx=0;entryDy=0;" parent="1" source="MxKaTCPz04sXQIFcnDnJ-26" target="MxKaTCPz04sXQIFcnDnJ-24" edge="1">
          <mxGeometry relative="1" as="geometry" />
        </mxCell>
        <mxCell id="MxKaTCPz04sXQIFcnDnJ-26" value="" style="rounded=1;whiteSpace=wrap;html=1;" parent="1" vertex="1">
          <mxGeometry x="365" y="110" width="165" height="310" as="geometry" />
        </mxCell>
        <mxCell id="MxKaTCPz04sXQIFcnDnJ-28" style="edgeStyle=orthogonalEdgeStyle;rounded=0;orthogonalLoop=1;jettySize=auto;html=1;entryX=0.5;entryY=1;entryDx=0;entryDy=0;" parent="1" source="MxKaTCPz04sXQIFcnDnJ-24" target="MxKaTCPz04sXQIFcnDnJ-26" edge="1">
          <mxGeometry relative="1" as="geometry" />
        </mxCell>
        <mxCell id="VrD2kvBC_twunkXz3cL_-8" style="edgeStyle=orthogonalEdgeStyle;rounded=0;orthogonalLoop=1;jettySize=auto;html=1;" parent="1" source="MxKaTCPz04sXQIFcnDnJ-24" edge="1">
          <mxGeometry relative="1" as="geometry">
            <mxPoint x="870" y="410" as="targetPoint" />
          </mxGeometry>
        </mxCell>
        <mxCell id="MxKaTCPz04sXQIFcnDnJ-24" value="" style="rounded=1;whiteSpace=wrap;html=1;" parent="1" vertex="1">
          <mxGeometry x="297.5" y="500" width="300" height="380" as="geometry" />
        </mxCell>
        <mxCell id="MxKaTCPz04sXQIFcnDnJ-2" value="" style="edgeStyle=orthogonalEdgeStyle;rounded=0;orthogonalLoop=1;jettySize=auto;html=1;" parent="1" source="MxKaTCPz04sXQIFcnDnJ-3" target="MxKaTCPz04sXQIFcnDnJ-9" edge="1">
          <mxGeometry relative="1" as="geometry" />
        </mxCell>
        <mxCell id="MxKaTCPz04sXQIFcnDnJ-3" value="User" style="rounded=1;whiteSpace=wrap;html=1;" parent="1" vertex="1">
          <mxGeometry x="82" y="135" width="120" height="60" as="geometry" />
        </mxCell>
        <mxCell id="MxKaTCPz04sXQIFcnDnJ-4" style="edgeStyle=orthogonalEdgeStyle;rounded=0;orthogonalLoop=1;jettySize=auto;html=1;entryX=0.5;entryY=0;entryDx=0;entryDy=0;" parent="1" source="MxKaTCPz04sXQIFcnDnJ-5" target="MxKaTCPz04sXQIFcnDnJ-9" edge="1">
          <mxGeometry relative="1" as="geometry" />
        </mxCell>
        <mxCell id="MxKaTCPz04sXQIFcnDnJ-5" value="User" style="rounded=1;whiteSpace=wrap;html=1;" parent="1" vertex="1">
          <mxGeometry x="82" y="225" width="120" height="60" as="geometry" />
        </mxCell>
        <mxCell id="MxKaTCPz04sXQIFcnDnJ-6" style="edgeStyle=orthogonalEdgeStyle;rounded=0;orthogonalLoop=1;jettySize=auto;html=1;entryX=0.5;entryY=0;entryDx=0;entryDy=0;" parent="1" source="MxKaTCPz04sXQIFcnDnJ-7" target="MxKaTCPz04sXQIFcnDnJ-9" edge="1">
          <mxGeometry relative="1" as="geometry" />
        </mxCell>
        <mxCell id="MxKaTCPz04sXQIFcnDnJ-7" value="User" style="rounded=1;whiteSpace=wrap;html=1;" parent="1" vertex="1">
          <mxGeometry x="82" y="345" width="120" height="60" as="geometry" />
        </mxCell>
        <mxCell id="MxKaTCPz04sXQIFcnDnJ-8" value="..." style="text;html=1;strokeColor=none;fillColor=none;align=center;verticalAlign=middle;whiteSpace=wrap;rounded=0;rotation=-90;" parent="1" vertex="1">
          <mxGeometry x="122" y="305" width="40" height="20" as="geometry" />
        </mxCell>
        <mxCell id="MxKaTCPz04sXQIFcnDnJ-14" style="edgeStyle=orthogonalEdgeStyle;rounded=0;orthogonalLoop=1;jettySize=auto;html=1;" parent="1" source="MxKaTCPz04sXQIFcnDnJ-9" target="MxKaTCPz04sXQIFcnDnJ-11" edge="1">
          <mxGeometry relative="1" as="geometry" />
        </mxCell>
        <mxCell id="MxKaTCPz04sXQIFcnDnJ-15" style="edgeStyle=orthogonalEdgeStyle;rounded=0;orthogonalLoop=1;jettySize=auto;html=1;" parent="1" source="MxKaTCPz04sXQIFcnDnJ-9" target="MxKaTCPz04sXQIFcnDnJ-12" edge="1">
          <mxGeometry relative="1" as="geometry" />
        </mxCell>
        <mxCell id="MxKaTCPz04sXQIFcnDnJ-16" style="edgeStyle=orthogonalEdgeStyle;rounded=0;orthogonalLoop=1;jettySize=auto;html=1;" parent="1" source="MxKaTCPz04sXQIFcnDnJ-9" target="MxKaTCPz04sXQIFcnDnJ-13" edge="1">
          <mxGeometry relative="1" as="geometry" />
        </mxCell>
        <mxCell id="MxKaTCPz04sXQIFcnDnJ-9" value="LB" style="rounded=1;whiteSpace=wrap;html=1;rotation=-90;" parent="1" vertex="1">
          <mxGeometry x="155" y="225" width="270" height="60" as="geometry" />
        </mxCell>
        <mxCell id="MxKaTCPz04sXQIFcnDnJ-19" style="edgeStyle=orthogonalEdgeStyle;rounded=0;orthogonalLoop=1;jettySize=auto;html=1;entryX=0.5;entryY=1;entryDx=0;entryDy=0;entryPerimeter=0;" parent="1" source="MxKaTCPz04sXQIFcnDnJ-11" target="MxKaTCPz04sXQIFcnDnJ-18" edge="1">
          <mxGeometry relative="1" as="geometry" />
        </mxCell>
        <mxCell id="MxKaTCPz04sXQIFcnDnJ-11" value="App Server" style="rounded=1;whiteSpace=wrap;html=1;" parent="1" vertex="1">
          <mxGeometry x="380" y="135" width="120" height="60" as="geometry" />
        </mxCell>
        <mxCell id="MxKaTCPz04sXQIFcnDnJ-20" style="edgeStyle=orthogonalEdgeStyle;rounded=0;orthogonalLoop=1;jettySize=auto;html=1;entryX=0.5;entryY=1;entryDx=0;entryDy=0;entryPerimeter=0;" parent="1" source="MxKaTCPz04sXQIFcnDnJ-12" target="MxKaTCPz04sXQIFcnDnJ-18" edge="1">
          <mxGeometry relative="1" as="geometry" />
        </mxCell>
        <mxCell id="MxKaTCPz04sXQIFcnDnJ-12" value="App Server" style="rounded=1;whiteSpace=wrap;html=1;" parent="1" vertex="1">
          <mxGeometry x="380" y="225" width="120" height="60" as="geometry" />
        </mxCell>
        <mxCell id="MxKaTCPz04sXQIFcnDnJ-21" style="edgeStyle=orthogonalEdgeStyle;rounded=0;orthogonalLoop=1;jettySize=auto;html=1;entryX=0.617;entryY=0.992;entryDx=0;entryDy=0;entryPerimeter=0;" parent="1" source="MxKaTCPz04sXQIFcnDnJ-13" target="MxKaTCPz04sXQIFcnDnJ-18" edge="1">
          <mxGeometry relative="1" as="geometry">
            <Array as="points">
              <mxPoint x="555" y="375" />
              <mxPoint x="555" y="245" />
              <mxPoint x="611" y="245" />
            </Array>
          </mxGeometry>
        </mxCell>
        <mxCell id="MxKaTCPz04sXQIFcnDnJ-13" value="App Server" style="rounded=1;whiteSpace=wrap;html=1;" parent="1" vertex="1">
          <mxGeometry x="380" y="345" width="120" height="60" as="geometry" />
        </mxCell>
        <mxCell id="MxKaTCPz04sXQIFcnDnJ-34" style="edgeStyle=orthogonalEdgeStyle;rounded=0;orthogonalLoop=1;jettySize=auto;html=1;entryX=0;entryY=0.5;entryDx=0;entryDy=0;" parent="1" source="MxKaTCPz04sXQIFcnDnJ-18" target="MxKaTCPz04sXQIFcnDnJ-31" edge="1">
          <mxGeometry relative="1" as="geometry" />
        </mxCell>
        <mxCell id="MxKaTCPz04sXQIFcnDnJ-35" style="edgeStyle=orthogonalEdgeStyle;rounded=0;orthogonalLoop=1;jettySize=auto;html=1;" parent="1" source="MxKaTCPz04sXQIFcnDnJ-18" target="MxKaTCPz04sXQIFcnDnJ-32" edge="1">
          <mxGeometry relative="1" as="geometry" />
        </mxCell>
        <mxCell id="MxKaTCPz04sXQIFcnDnJ-36" style="edgeStyle=orthogonalEdgeStyle;rounded=0;orthogonalLoop=1;jettySize=auto;html=1;entryX=0;entryY=0.5;entryDx=0;entryDy=0;" parent="1" source="MxKaTCPz04sXQIFcnDnJ-18" target="MxKaTCPz04sXQIFcnDnJ-33" edge="1">
          <mxGeometry relative="1" as="geometry" />
        </mxCell>
        <mxCell id="MxKaTCPz04sXQIFcnDnJ-18" value="Order Handling&amp;nbsp; Queue" style="shape=cylinder3;whiteSpace=wrap;html=1;boundedLbl=1;backgroundOutline=1;size=15;rotation=90;" parent="1" vertex="1">
          <mxGeometry x="642.5" y="182.5" width="60" height="125" as="geometry" />
        </mxCell>
        <mxCell id="MxKaTCPz04sXQIFcnDnJ-22" value="User DB" style="shape=cylinder3;whiteSpace=wrap;html=1;boundedLbl=1;backgroundOutline=1;size=15;" parent="1" vertex="1">
          <mxGeometry x="327.5" y="590" width="60" height="80" as="geometry" />
        </mxCell>
        <mxCell id="MxKaTCPz04sXQIFcnDnJ-23" value="User Cache" style="rounded=0;whiteSpace=wrap;html=1;" parent="1" vertex="1">
          <mxGeometry x="327.5" y="540" width="60" height="40" as="geometry" />
        </mxCell>
        <mxCell id="MxKaTCPz04sXQIFcnDnJ-29" value="Order Cache" style="rounded=0;whiteSpace=wrap;html=1;" parent="1" vertex="1">
          <mxGeometry x="520" y="540" width="60" height="40" as="geometry" />
        </mxCell>
        <mxCell id="MxKaTCPz04sXQIFcnDnJ-30" value="Order DB" style="shape=cylinder3;whiteSpace=wrap;html=1;boundedLbl=1;backgroundOutline=1;size=15;" parent="1" vertex="1">
          <mxGeometry x="520" y="590" width="60" height="80" as="geometry" />
        </mxCell>
        <mxCell id="MxKaTCPz04sXQIFcnDnJ-31" value="Order Handling Server" style="rounded=1;whiteSpace=wrap;html=1;" parent="1" vertex="1">
          <mxGeometry x="810" y="135" width="120" height="60" as="geometry" />
        </mxCell>
        <mxCell id="MxKaTCPz04sXQIFcnDnJ-32" value="Order Handling Server" style="rounded=1;whiteSpace=wrap;html=1;" parent="1" vertex="1">
          <mxGeometry x="810" y="225" width="120" height="60" as="geometry" />
        </mxCell>
        <mxCell id="VrD2kvBC_twunkXz3cL_-7" style="edgeStyle=orthogonalEdgeStyle;rounded=0;orthogonalLoop=1;jettySize=auto;html=1;entryX=1;entryY=0.5;entryDx=0;entryDy=0;" parent="1" source="MxKaTCPz04sXQIFcnDnJ-33" target="MxKaTCPz04sXQIFcnDnJ-24" edge="1">
          <mxGeometry relative="1" as="geometry">
            <Array as="points">
              <mxPoint x="870" y="690" />
            </Array>
          </mxGeometry>
        </mxCell>
        <mxCell id="MxKaTCPz04sXQIFcnDnJ-33" value="Order Handling Server" style="rounded=1;whiteSpace=wrap;html=1;" parent="1" vertex="1">
          <mxGeometry x="810" y="345" width="120" height="60" as="geometry" />
        </mxCell>
        <mxCell id="A113YCUCI-aPeW-VZYLX-1" value="Driver Cache" style="rounded=0;whiteSpace=wrap;html=1;" vertex="1" parent="1">
          <mxGeometry x="425" y="540" width="60" height="40" as="geometry" />
        </mxCell>
        <mxCell id="A113YCUCI-aPeW-VZYLX-2" value="Driver DB" style="shape=cylinder3;whiteSpace=wrap;html=1;boundedLbl=1;backgroundOutline=1;size=15;" vertex="1" parent="1">
          <mxGeometry x="425" y="590" width="60" height="80" as="geometry" />
        </mxCell>
        <mxCell id="A113YCUCI-aPeW-VZYLX-3" value="Restaurants DB" style="shape=cylinder3;whiteSpace=wrap;html=1;boundedLbl=1;backgroundOutline=1;size=15;" vertex="1" parent="1">
          <mxGeometry x="327.5" y="740" width="82.5" height="100" as="geometry" />
        </mxCell>
        <mxCell id="A113YCUCI-aPeW-VZYLX-4" value="Restaurants Cache" style="rounded=0;whiteSpace=wrap;html=1;" vertex="1" parent="1">
          <mxGeometry x="327.5" y="690" width="82.5" height="40" as="geometry" />
        </mxCell>
        <mxCell id="A113YCUCI-aPeW-VZYLX-7" value="" style="edgeStyle=orthogonalEdgeStyle;rounded=0;orthogonalLoop=1;jettySize=auto;html=1;" edge="1" parent="1" source="A113YCUCI-aPeW-VZYLX-6">
          <mxGeometry relative="1" as="geometry">
            <mxPoint x="448" y="110" as="targetPoint" />
          </mxGeometry>
        </mxCell>
        <mxCell id="A113YCUCI-aPeW-VZYLX-6" value="Payment Service" style="rounded=1;whiteSpace=wrap;html=1;" vertex="1" parent="1">
          <mxGeometry x="387.5" width="120" height="60" as="geometry" />
        </mxCell>
      </root>
    </mxGraphModel>
  </diagram>
</mxfile>
